# This file uses centimeters as units for non-parametric coordinates.

g default
v -5.000000 0.038153 5.000000
v 5.000000 0.038153 5.000000
v -5.000000 10.038153 5.000000
v 5.000000 10.038153 5.000000
v -5.000000 10.038153 -5.000000
v 5.000000 10.038153 -5.000000
v -5.000000 0.038153 -5.000000
v 5.000000 0.038153 -5.000000
v -66.584579 0.038153 66.584579
v 66.584579 0.038153 66.584579
v -66.584579 0.038153 -66.584579
v 66.584579 0.038153 -66.584579
vt 0.641528 0.998008
vt 0.641528 0.928700
vt 0.710835 0.928700
vt 0.710835 0.998008
vt 0.566466 0.928700
vt 0.635774 0.928700
vt 0.635774 0.998008
vt 0.566466 0.998008
vt 0.791651 0.928700
vt 0.860959 0.928700
vt 0.860959 0.998008
vt 0.791651 0.998008
vt 0.498004 0.428820
vt 0.428697 0.428820
vt 0.001868 0.001992
vt 0.924833 0.001992
vt 0.428697 0.498128
vt 0.001868 0.924957
vt 0.498004 0.498128
vt 0.924833 0.924957
vt 0.866713 0.928700
vt 0.936021 0.928700
vt 0.936021 0.998008
vt 0.866713 0.998008
vt 0.716590 0.998008
vt 0.716590 0.928700
vt 0.785897 0.928700
vt 0.785897 0.998008
vn 0.000000 0.000000 1.000000
vn 0.000000 0.000000 1.000000
vn 0.000000 0.000000 1.000000
vn 0.000000 0.000000 1.000000
vn 0.000000 1.000000 0.000000
vn 0.000000 1.000000 0.000000
vn 0.000000 1.000000 0.000000
vn 0.000000 1.000000 0.000000
vn 0.000000 0.000000 -1.000000
vn 0.000000 0.000000 -1.000000
vn 0.000000 0.000000 -1.000000
vn 0.000000 0.000000 -1.000000
vn 1.000000 0.000000 0.000000
vn 1.000000 0.000000 0.000000
vn 1.000000 0.000000 0.000000
vn 1.000000 0.000000 0.000000
vn -1.000000 0.000000 0.000000
vn -1.000000 0.000000 0.000000
vn -1.000000 0.000000 0.000000
vn -1.000000 0.000000 0.000000
vn 0.000000 1.000000 0.000000
vn 0.000000 1.000000 0.000000
vn 0.000000 1.000000 0.000000
vn 0.000000 1.000000 0.000000
vn 0.000000 1.000000 0.000000
vn 0.000000 1.000000 0.000000
vn 0.000000 1.000000 0.000000
vn 0.000000 1.000000 0.000000
vn 0.000000 1.000000 0.000000
vn 0.000000 1.000000 0.000000
vn 0.000000 1.000000 0.000000
vn 0.000000 1.000000 0.000000
vn 0.000000 1.000000 0.000000
vn 0.000000 1.000000 0.000000
vn 0.000000 1.000000 0.000000
vn 0.000000 1.000000 0.000000
s off
g pCube1
f 1/21/1 2/22/2 4/23/3 3/24/4
f 3/9/5 4/10/6 6/11/7 5/12/8
f 5/25/9 6/26/10 8/27/11 7/28/12
f 2/1/13 8/2/14 6/3/15 4/4/16
f 7/5/17 1/6/18 3/7/19 5/8/20
f 2/13/21 1/14/22 9/15/23 10/16/24
f 7/17/25 8/19/26 12/20/27 11/18/28
f 1/14/29 7/17/30 11/18/31 9/15/32
f 8/19/33 2/13/34 10/16/35 12/20/36
