{"asset":{"version":"2.0","generator":"THREE.GLTFExporter r178"},"scenes":[{"nodes":[0]}],"scene":0,"nodes":[{"mesh":0}],"bufferViews":[{"buffer":0,"byteOffset":0,"byteLength":12132,"target":34962,"byteStride":12},{"buffer":0,"byteOffset":12132,"byteLength":2024,"target":34963}],"buffers":[{"byteLength":14156,"uri":"data:application/octet-stream;base64,"}],"accessors":[{"bufferView":0,"componentType":5126,"count":1011,"max":[45.030426025390625,0.20000000298023224,52.548667907714844],"min":[-42.76957702636719,0.20000000298023224,-24.451335906982422],"type":"VEC3"},{"bufferView":1,"componentType":5123,"count":1011,"max":[1010],"min":[0],"type":"SCALAR"}],"materials":[{"pbrMetallicRoughness":{"metallicFactor":0,"roughnessFactor":1}}],"meshes":[{"primitives":[{"mode":4,"attributes":{"POSITION":0},"indices":1,"material":0}]}]}