{"accessors": [{"count": 828, "min": [0], "max": [255], "bufferView": 0, "componentType": 5123, "byteOffset": 0, "type": "SCALAR"}, {"count": 256, "min": [-0.6609954833984375, 0.0031152069568634033, 0.0], "max": [0.6609954833984375, 1.523590087890625, 0.0], "bufferView": 1, "componentType": 5126, "byteOffset": 0, "type": "VEC3"}, {"componentType": 5126, "count": 256, "bufferView": 2, "type": "VEC3", "byteOffset": 0}, {"componentType": 5126, "count": 256, "bufferView": 3, "type": "VEC2", "byteOffset": 0}], "scenes": [{"nodes": [0], "name": "defaultScene"}], "scene": 0, "materials": [{"alphaMode": "OPAQUE", "pbrMetallicRoughness": {"roughnessFactor": 1, "metallicFactor": 0, "baseColorFactor": [0.0, 0.0, 0.0, 1.0]}}], "meshes": [{"primitives": [{"indices": 0, "attributes": {"POSITION": 1, "TEXCOORD_0": 3, "NORMAL": 2}, "material": 0, "mode": 4}]}], "nodes": [{"translation": [0.0, 0.0, 0.0], "scale": [1.0, 1.0, 1.0], "rotation": [0.0, 0.0, 0.0, 1.0], "mesh": 0}], "bufferViews": [{"buffer": 0, "byteLength": 1656, "byteOffset": 0, "target": 34963}, {"buffer": 0, "byteLength": 3072, "byteOffset": 1656, "target": 34962}, {"buffer": 0, "byteLength": 3072, "byteOffset": 4728, "target": 34962}, {"buffer": 0, "byteLength": 2048, "byteOffset": 7800, "target": 34962}], "buffers": [{"byteLength": 9848, "uri": "data:application/octet-stream;base64,"}], "asset": {"version": "2.0", "generator": "maya-glTFExport"}}