{
	"asset":{
		"version":"2.0",
		"generator":"Houdini GLTF 2.0 Exporter"
	},
	"accessors":[
		{
			"bufferView":0,
			"componentType":5123,
			"count":1590,
			"type":"SCALAR",
			"min":[0
			],
			"max":[326
			]
		},
		{
			"bufferView":1,
			"componentType":5126,
			"count":327,
			"type":"VEC3",
			"min":[-0.66099602,-0.000199999995,0
			],
			"max":[0.660995007,1.520275,9.99999997e-07
			]
		},
		{
			"bufferView":2,
			"componentType":5126,
			"count":327,
			"type":"VEC2",
			"min":[0.0611560009,-0.00189602375
			],
			"max":[0.5,1.00189602
			]
		},
		{
			"bufferView":3,
			"componentType":5126,
			"count":327,
			"type":"VEC4",
			"min":[0.978214085,-0.174801946,-9.99999997e-07,1
			],
			"max":[1,0.20759882,1.00014904e-06,1
			]
		},
		{
			"bufferView":4,
			"componentType":5126,
			"count":327,
			"type":"VEC3",
			"min":[-4.99999987e-06,-9.99999997e-07,1
			],
			"max":[6.00000021e-06,7.0000001e-06,1
			]
		}
	],
	"buffers":[
		{
			"uri":"pictogram_data.bin",
			"byteLength":18876,
			"name":"main_buffer"
		}
	],
	"bufferViews":[
		{
			"buffer":0,
			"byteLength":3180,
			"target":34963
		},
		{
			"buffer":0,
			"byteOffset":3180,
			"byteLength":3924,
			"target":34962
		},
		{
			"buffer":0,
			"byteOffset":7104,
			"byteLength":2616,
			"target":34962
		},
		{
			"buffer":0,
			"byteOffset":9720,
			"byteLength":5232,
			"target":34962
		},
		{
			"buffer":0,
			"byteOffset":14952,
			"byteLength":3924,
			"target":34962
		}
	],
	"nodes":[
		{
			"name":"geo1",
			"mesh":0
		}
	],
	"meshes":[
		{
			"primitives":[
				{
					"attributes":{
						"POSITION":1,
						"TANGENT":3,
						"NORMAL":4,
						"TEXCOORD_0":2
					},
					"indices":0
				}
			],
			"name":"file1"
		}
	],
	"scenes":[
		{
			"nodes":[0
			]
		}
	],
	"scene":0
}
