# This file uses centimeters as units for non-parametric coordinates.

g default
v -0.713404 -1.000000 -0.708458
v -0.707980 -0.000027 -0.706232
v 0.000000 -0.000162 0.000000
v -0.001747 0.000000 -1.414212
v 0.706232 -0.000297 -0.707980
v -0.000807 -1.000000 -1.414539
v 0.706840 -1.000000 -0.709623
v 0.708005 -1.000000 0.702606
v 0.000000 1.000000 0.000000
v 0.707981 1.000000 0.706232
v 0.706232 1.000000 -0.707980
v 1.414212 1.000000 -0.001747
v 1.416075 -1.000000 -0.001179
v -0.712239 -1.000000 0.703771
v 0.000940 -1.000000 1.412909
v -0.706232 -0.000027 0.707980
v 0.001747 0.000000 1.414212
v 0.707980 -0.000297 0.706232
v -1.401963 -1.000000 0.000568
v -1.414212 0.500000 0.001747
v -0.706232 0.500000 0.707980
v -0.707980 0.500000 -0.706232
v 0.000001 0.500000 0.000000
v -5.000283 -1.000000 5.000283
v 5.000283 -1.000000 5.000283
v -5.000283 -1.000000 -5.000283
v 5.000283 -1.000000 -5.000283
v 1.414212 -0.000594 -0.001747
v -1.414212 -0.000055 0.001747
v -5.000282 -1.000000 -0.000611
v 5.000283 -1.000000 -0.000610
v -5.000282 -1.000000 1.411606
v 5.000283 -1.000000 1.411606
v -5.000282 -1.000000 -1.414866
v 5.000283 -1.000000 -1.414866
v -1.402333 -1.000000 5.000283
v -1.402333 -1.000000 1.411606
v -1.402333 -1.000000 -1.414866
v -1.402333 -1.000000 -5.000283
v 1.417937 -1.000000 5.000283
v 1.417938 -1.000000 1.411606
v 1.417938 -1.000000 -1.414866
v 1.417937 -1.000000 -5.000283
v 5.000283 -1.000000 -0.712909
v 1.417938 -1.000000 -0.712909
v -1.402333 -1.000000 -0.712909
v -5.000282 -1.000000 -0.712909
v 5.000283 -1.000000 0.695353
v 1.417938 -1.000000 0.695353
v -1.402333 -1.000000 0.695353
v -5.000282 -1.000000 0.695352
v 0.708056 -1.000000 5.000283
v 0.708056 -1.000000 1.411606
v 0.708056 -1.000000 -1.414866
v 0.708056 -1.000000 -5.000283
v -0.724253 -1.000000 5.000283
v -0.724252 -1.000000 1.411606
v -0.724252 -1.000000 -1.414866
v -0.724253 -1.000000 -5.000283
v 0.000133 -1.000000 5.000283
v 0.000132 -1.000000 -5.000283
v 0.706232 0.500326 -0.707980
v 1.414212 0.500177 -0.001747
v 0.707980 0.500326 0.706232
v 0.000000 0.500393 0.000000
v -5.000283 -1.530204 5.000283
v -1.402333 -1.530204 5.000283
v 5.000283 -1.530204 5.000283
v 5.000283 -1.530204 1.411606
v 5.000283 -1.530204 -5.000283
v 1.417937 -1.530204 -5.000283
v -5.000283 -1.530204 -5.000283
v -5.000282 -1.530204 -1.414866
v -5.000282 -1.530204 -0.000611
v -5.000282 -1.530204 0.695352
v 5.000283 -1.530204 -0.000610
v 5.000283 -1.530204 -0.712909
v -5.000282 -1.530204 1.411606
v 5.000283 -1.530204 0.695353
v -5.000282 -1.530204 -0.712909
v 5.000283 -1.530204 -1.414866
v -0.724253 -1.530204 5.000283
v -1.402333 -1.530204 -5.000283
v 1.417937 -1.530204 5.000283
v 0.708056 -1.530204 -5.000283
v 0.708056 -1.530204 5.000283
v 0.000132 -1.530204 -5.000283
v 0.000133 -1.530204 5.000283
v -0.724253 -1.530204 -5.000283
vt 0.562399 0.320126
vt 0.562399 0.498183
vt 0.536092 0.498183
vt 0.536092 0.320126
vt 0.562399 0.284588
vt 0.536092 0.284588
vt 0.562399 0.250057
vt 0.536092 0.250057
vt 0.562399 0.214716
vt 0.536092 0.214716
vt 0.562399 0.179887
vt 0.536092 0.179887
vt 0.562399 0.001992
vt 0.536092 0.001992
vt 0.626278 0.320288
vt 0.626278 0.498183
vt 0.599971 0.498183
vt 0.599971 0.320288
vt 0.626278 0.285459
vt 0.599971 0.285459
vt 0.626278 0.250118
vt 0.599971 0.250118
vt 0.626278 0.215587
vt 0.599971 0.215587
vt 0.626278 0.180049
vt 0.599971 0.180049
vt 0.626278 0.001992
vt 0.599971 0.001992
vt 0.151862 0.536858
vt 0.186990 0.501817
vt 0.222030 0.536944
vt 0.186903 0.571985
vt 0.076108 0.536858
vt 0.111236 0.501817
vt 0.146276 0.536944
vt 0.111149 0.571985
vt 0.001814 0.610659
vt 0.036941 0.575619
vt 0.071982 0.610746
vt 0.036854 0.645787
vt 0.113332 0.645787
vt 0.078291 0.610660
vt 0.113419 0.575619
vt 0.148459 0.610746
vt 0.001814 0.320288
vt 0.180331 0.320288
vt 0.180331 0.498183
vt 0.001814 0.498183
vt 0.001814 0.285459
vt 0.180331 0.285459
vt 0.213974 0.320288
vt 0.213974 0.498183
vt 0.001814 0.250118
vt 0.180349 0.250059
vt 0.214513 0.285239
vt 0.249869 0.320272
vt 0.249916 0.498183
vt 0.001814 0.215587
vt 0.180331 0.215587
vt 0.285040 0.320288
vt 0.285040 0.498183
vt 0.001814 0.180049
vt 0.180331 0.180049
vt 0.214570 0.215169
vt 0.284980 0.285296
vt 0.320262 0.320288
vt 0.320262 0.498183
vt 0.001814 0.001992
vt 0.180331 0.001992
vt 0.213974 0.180049
vt 0.320262 0.285459
vt 0.498005 0.320288
vt 0.498005 0.498183
vt 0.213974 0.001992
vt 0.249956 0.179984
vt 0.320169 0.250146
vt 0.498005 0.285459
vt 0.249916 0.001992
vt 0.498005 0.250118
vt 0.285040 0.001992
vt 0.285040 0.180049
vt 0.320262 0.215587
vt 0.498005 0.215587
vt 0.320262 0.001992
vt 0.320262 0.180049
vt 0.285038 0.215227
vt 0.498005 0.180049
vt 0.498005 0.001992
vt 0.590962 0.998008
vt 0.412445 0.998008
vt 0.412445 0.819951
vt 0.412445 0.784413
vt 0.412445 0.749882
vt 0.412445 0.714541
vt 0.412445 0.679712
vt 0.412445 0.501817
vt 0.590962 0.501817
vt 0.624606 0.501817
vt 0.660547 0.501817
vt 0.695671 0.501817
vt 0.730893 0.501817
vt 0.908636 0.501817
vt 0.908636 0.679712
vt 0.908636 0.714541
vt 0.908636 0.749882
vt 0.908636 0.784413
vt 0.908636 0.819951
vt 0.908636 0.998008
vt 0.730893 0.998008
vt 0.695671 0.998008
vt 0.660547 0.998008
vt 0.624606 0.998008
vt 0.530459 0.319666
vt 0.530459 0.498183
vt 0.504153 0.498183
vt 0.504153 0.319666
vt 0.530459 0.286022
vt 0.504153 0.286022
vt 0.530459 0.250081
vt 0.504153 0.250081
vt 0.530459 0.214956
vt 0.504153 0.214956
vt 0.530459 0.179735
vt 0.504153 0.179735
vt 0.530459 0.001992
vt 0.504153 0.001992
vt 0.568032 0.179735
vt 0.568032 0.001992
vt 0.594339 0.001992
vt 0.594339 0.179735
vt 0.568032 0.214956
vt 0.594339 0.214956
vt 0.568032 0.250081
vt 0.594339 0.250081
vt 0.568032 0.286022
vt 0.594339 0.286022
vt 0.568032 0.319666
vt 0.594339 0.319666
vt 0.568032 0.498183
vt 0.594339 0.498183
vt 0.357243 0.501833
vt 0.357228 0.536874
vt 0.307626 0.536792
vt 0.307626 0.501817
vt 0.357213 0.571914
vt 0.307626 0.571943
vt 0.382067 0.536874
vt 0.382060 0.571914
vt 0.307626 0.606862
vt 0.357228 0.607042
vt 0.406859 0.536874
vt 0.406859 0.571914
vt 0.382067 0.607042
vt 0.307626 0.642104
vt 0.357243 0.642169
vt 0.406859 0.607042
vt 0.382070 0.572001
vt 0.406859 0.572001
vt 0.227616 0.642169
vt 0.227616 0.607136
vt 0.277231 0.607026
vt 0.277232 0.642153
vt 0.227616 0.571957
vt 0.277230 0.571898
vt 0.227616 0.537066
vt 0.277231 0.536858
vt 0.302041 0.571898
vt 0.302041 0.607026
vt 0.227616 0.501882
vt 0.277232 0.501817
vt 0.302041 0.536858
vt 0.277224 0.571985
vt 0.302041 0.571985
vt 0.179434 0.610659
vt 0.179430 0.575619
vt 0.204222 0.575619
vt 0.204222 0.610659
vt 0.154598 0.610659
vt 0.154591 0.575619
vt 0.154591 0.645787
vt 0.179430 0.645787
vt 0.211380 0.680930
vt 0.211373 0.645803
vt 0.236189 0.645803
vt 0.236189 0.680930
vn 0.000191 1.000000 0.000115
vn 0.000191 1.000000 0.000115
vn 0.000191 1.000000 0.000115
vn 0.000191 1.000000 0.000115
vn 0.705985 0.001244 -0.708225
vn 0.705985 0.001244 -0.708225
vn 0.705985 0.001244 -0.708225
vn 0.705985 0.001244 -0.708225
vn -0.705913 0.002487 -0.708294
vn -0.705913 0.002487 -0.708294
vn -0.705913 0.002487 -0.708294
vn -0.705913 0.002487 -0.708294
vn 0.000000 1.000000 0.000000
vn 0.000000 1.000000 0.000000
vn 0.000000 1.000000 0.000000
vn 0.000000 1.000000 0.000000
vn 0.706233 0.000000 -0.707980
vn 0.706233 0.000000 -0.707980
vn 0.706393 0.000836 -0.707820
vn 0.706393 0.000836 -0.707820
vn 0.706976 -0.000276 0.707237
vn 0.706975 -0.000277 0.707238
vn 0.707980 -0.000000 0.706233
vn 0.707980 -0.000000 0.706232
vn -0.705663 0.000452 0.708548
vn -0.705663 0.000452 0.708548
vn -0.705663 0.000452 0.708548
vn -0.705663 0.000452 0.708548
vn 0.000191 1.000000 -0.000115
vn 0.000191 1.000000 -0.000115
vn 0.000191 1.000000 -0.000115
vn 0.000191 1.000000 -0.000115
vn 0.708349 -0.002017 0.705860
vn 0.708349 -0.002017 0.705860
vn 0.708349 -0.002017 0.705860
vn 0.708349 -0.002017 0.705860
vn -0.708770 -0.002731 0.705434
vn -0.708771 -0.002731 0.705434
vn -0.706233 0.000000 0.707980
vn -0.706233 0.000000 0.707980
vn 0.000000 1.000000 0.000000
vn 0.000000 1.000000 0.000000
vn 0.000000 1.000000 0.000000
vn 0.000000 1.000000 0.000000
vn -0.711103 -0.000823 -0.703088
vn -0.711098 -0.000822 -0.703093
vn -0.707980 0.000000 -0.706233
vn -0.707980 0.000000 -0.706233
vn 0.000000 1.000000 0.000000
vn 0.000000 1.000000 0.000000
vn 0.000000 1.000000 0.000000
vn 0.000000 1.000000 0.000000
vn 0.706393 0.000836 -0.707820
vn 0.706393 0.000836 -0.707820
vn 0.706472 0.001254 -0.707740
vn 0.706472 0.001254 -0.707740
vn 0.706471 -0.000415 0.707742
vn 0.706471 -0.000415 0.707742
vn 0.706975 -0.000277 0.707238
vn 0.706976 -0.000276 0.707237
vn -0.710050 -0.004113 0.704140
vn -0.710050 -0.004113 0.704140
vn -0.708771 -0.002731 0.705434
vn -0.708770 -0.002731 0.705434
vn -0.712670 -0.001238 -0.701498
vn -0.712670 -0.001238 -0.701498
vn -0.711098 -0.000822 -0.703093
vn -0.711103 -0.000823 -0.703088
vn 0.000000 1.000000 0.000000
vn -0.000000 1.000000 -0.000000
vn 0.000000 1.000000 0.000000
vn 0.000000 1.000000 0.000000
vn 0.000000 1.000000 0.000000
vn 0.000000 1.000000 0.000000
vn -0.000000 1.000000 -0.000000
vn 0.000000 1.000000 0.000000
vn 0.000000 1.000000 0.000000
vn 0.000000 1.000000 0.000000
vn 0.000000 1.000000 0.000000
vn 0.000000 1.000000 0.000000
vn 0.000000 1.000000 0.000000
vn 0.000000 1.000000 0.000000
vn 0.000000 1.000000 0.000000
vn -0.000000 1.000000 -0.000000
vn 0.000000 1.000000 0.000000
vn -0.000000 1.000000 -0.000000
vn 0.000000 1.000000 0.000000
vn 0.000000 1.000000 0.000000
vn 0.000000 1.000000 0.000000
vn 0.000000 1.000000 0.000000
vn 0.000000 1.000000 0.000000
vn 0.000000 1.000000 0.000000
vn 0.000000 1.000000 0.000000
vn 0.000000 1.000000 0.000000
vn 0.000000 1.000000 0.000000
vn 0.000000 1.000000 0.000000
vn 0.000000 1.000000 0.000000
vn 0.000000 1.000000 0.000000
vn 0.000000 1.000000 0.000000
vn 0.000000 1.000000 0.000000
vn 0.000000 1.000000 0.000000
vn 0.000000 1.000000 0.000000
vn 0.000000 1.000000 0.000000
vn 0.000000 1.000000 0.000000
vn 0.000000 1.000000 0.000000
vn 0.000000 1.000000 0.000000
vn 0.000000 1.000000 0.000000
vn 0.000000 1.000000 0.000000
vn 0.000000 1.000000 0.000000
vn 0.000000 1.000000 0.000000
vn 0.000000 1.000000 0.000000
vn 0.000000 1.000000 0.000000
vn 0.000000 1.000000 0.000000
vn 0.000000 1.000000 0.000000
vn 0.000000 1.000000 0.000000
vn 0.000000 1.000000 0.000000
vn 0.000000 1.000000 0.000000
vn 0.000000 1.000000 0.000000
vn 0.000000 1.000000 0.000000
vn 0.000000 1.000000 0.000000
vn 0.000000 1.000000 0.000000
vn 0.000000 1.000000 0.000000
vn 0.000000 1.000000 0.000000
vn 0.000000 1.000000 0.000000
vn 0.000000 1.000000 0.000000
vn 0.000000 1.000000 0.000000
vn 0.000000 1.000000 0.000000
vn 0.000000 1.000000 0.000000
vn 0.000000 1.000000 0.000000
vn 0.000000 1.000000 0.000000
vn 0.000000 1.000000 0.000000
vn 0.000000 1.000000 0.000000
vn 0.000000 1.000000 0.000000
vn 0.000000 1.000000 0.000000
vn 0.000000 1.000000 0.000000
vn 0.000000 1.000000 0.000000
vn 0.000000 1.000000 0.000000
vn 0.000000 1.000000 0.000000
vn 0.000000 1.000000 0.000000
vn 0.000000 1.000000 0.000000
vn 0.000000 1.000000 0.000000
vn 0.000000 1.000000 0.000000
vn 0.000000 1.000000 0.000000
vn 0.000000 1.000000 0.000000
vn 0.000000 1.000000 0.000000
vn 0.000000 1.000000 0.000000
vn 0.000000 1.000000 0.000000
vn 0.000000 1.000000 0.000000
vn 0.000000 1.000000 0.000000
vn 0.000000 1.000000 0.000000
vn 0.000000 1.000000 0.000000
vn 0.000000 1.000000 0.000000
vn 0.000000 1.000000 0.000000
vn 0.000000 1.000000 0.000000
vn 0.000000 1.000000 0.000000
vn 0.000000 1.000000 0.000000
vn 0.000000 1.000000 0.000000
vn 0.000000 1.000000 0.000000
vn 0.000000 1.000000 0.000000
vn 0.000000 1.000000 0.000000
vn 0.000000 1.000000 0.000000
vn 0.000000 1.000000 0.000000
vn 0.000000 1.000000 0.000000
vn 0.000000 1.000000 0.000000
vn 0.000000 1.000000 0.000000
vn 0.000000 1.000000 0.000000
vn 0.000000 1.000000 0.000000
vn 0.000000 1.000000 0.000000
vn 0.000000 1.000000 0.000000
vn 0.000000 1.000000 0.000000
vn 0.000000 1.000000 0.000000
vn 0.000000 1.000000 0.000000
vn 0.000000 1.000000 0.000000
vn 0.000000 1.000000 0.000000
vn 0.000000 1.000000 0.000000
vn 0.000000 1.000000 0.000000
vn 0.000000 1.000000 0.000000
vn 0.000000 1.000000 0.000000
vn 0.000000 1.000000 0.000000
vn 0.000000 1.000000 0.000000
vn 0.000000 1.000000 0.000000
vn 0.000000 1.000000 0.000000
vn 0.000000 1.000000 0.000000
vn 0.000000 1.000000 0.000000
vn 0.706233 0.000000 -0.707980
vn 0.706233 0.000000 -0.707980
vn 0.706233 0.000000 -0.707980
vn 0.706233 0.000000 -0.707980
vn 0.707980 -0.000000 0.706232
vn 0.707980 -0.000000 0.706233
vn 0.707980 -0.000000 0.706233
vn 0.707980 -0.000000 0.706233
vn -0.706232 0.000000 0.707980
vn -0.706232 0.000000 0.707980
vn -0.706232 0.000000 0.707980
vn -0.706232 0.000000 0.707980
vn -0.707980 0.000000 -0.706232
vn -0.707980 0.000000 -0.706232
vn -0.707980 0.000000 -0.706232
vn -0.707980 0.000000 -0.706232
vn -0.707980 0.000000 -0.706232
vn -0.707980 0.000000 -0.706232
vn -0.707980 0.000000 -0.706232
vn -0.707980 0.000000 -0.706232
vn 0.706232 0.000000 -0.707980
vn 0.706232 0.000000 -0.707980
vn 0.706232 0.000000 -0.707980
vn 0.706232 0.000000 -0.707981
vn -0.706233 0.000000 0.707980
vn -0.706232 0.000000 0.707980
vn -0.706232 0.000000 0.707980
vn -0.706232 0.000000 0.707980
vn 0.707980 -0.000001 0.706232
vn 0.707980 -0.000001 0.706232
vn 0.707980 -0.000001 0.706232
vn 0.707980 -0.000001 0.706233
vn 0.000000 0.000000 1.000000
vn 0.000000 0.000000 1.000000
vn 0.000000 0.000000 1.000000
vn 0.000000 0.000000 1.000000
vn 1.000000 0.000000 0.000000
vn 1.000000 0.000000 0.000000
vn 1.000000 0.000000 0.000000
vn 1.000000 0.000000 0.000000
vn 0.000000 0.000000 -1.000000
vn 0.000000 0.000000 -1.000000
vn 0.000000 0.000000 -1.000000
vn 0.000000 0.000000 -1.000000
vn -1.000000 0.000000 0.000000
vn -1.000000 0.000000 0.000000
vn -1.000000 0.000000 0.000000
vn -1.000000 0.000000 0.000000
vn -1.000000 0.000000 0.000000
vn -1.000000 0.000000 0.000000
vn -1.000000 0.000000 0.000000
vn -1.000000 0.000000 0.000000
vn 1.000000 0.000000 0.000000
vn 1.000000 0.000000 0.000000
vn 1.000000 0.000000 0.000000
vn 1.000000 0.000000 0.000000
vn -1.000000 0.000000 -0.000000
vn -1.000000 0.000000 -0.000000
vn -1.000000 0.000000 -0.000000
vn -1.000000 0.000000 -0.000000
vn 1.000000 0.000000 0.000000
vn 1.000000 0.000000 0.000000
vn 1.000000 0.000000 0.000000
vn 1.000000 0.000000 0.000000
vn -1.000000 0.000000 0.000000
vn -1.000000 0.000000 0.000000
vn -1.000000 0.000000 0.000000
vn -1.000000 0.000000 0.000000
vn 1.000000 0.000000 0.000000
vn 1.000000 0.000000 0.000000
vn 1.000000 0.000000 0.000000
vn 1.000000 0.000000 0.000000
vn 0.000000 0.000000 1.000000
vn 0.000000 0.000000 1.000000
vn 0.000000 0.000000 1.000000
vn 0.000000 0.000000 1.000000
vn 0.000000 0.000000 -1.000000
vn 0.000000 0.000000 -1.000000
vn 0.000000 0.000000 -1.000000
vn 0.000000 0.000000 -1.000000
vn 0.000000 0.000000 1.000000
vn 0.000000 0.000000 1.000000
vn 0.000000 0.000000 1.000000
vn 0.000000 0.000000 1.000000
vn 0.000000 0.000000 -1.000000
vn 0.000000 0.000000 -1.000000
vn 0.000000 0.000000 -1.000000
vn 0.000000 0.000000 -1.000000
vn 1.000000 0.000000 0.000000
vn 1.000000 0.000000 0.000000
vn 1.000000 0.000000 0.000000
vn 1.000000 0.000000 0.000000
vn -1.000000 0.000000 0.000000
vn -1.000000 0.000000 0.000000
vn -1.000000 0.000000 0.000000
vn -1.000000 0.000000 0.000000
vn 1.000000 0.000000 0.000000
vn 1.000000 0.000000 0.000000
vn 1.000000 0.000000 0.000000
vn 1.000000 0.000000 0.000000
vn -1.000000 0.000000 0.000000
vn -1.000000 0.000000 0.000000
vn -1.000000 0.000000 0.000000
vn -1.000000 0.000000 0.000000
vn 0.000000 0.000000 1.000000
vn 0.000000 0.000000 1.000000
vn 0.000000 0.000000 1.000000
vn 0.000000 0.000000 1.000000
vn 0.000000 0.000000 -1.000000
vn 0.000000 0.000000 -1.000000
vn 0.000000 0.000000 -1.000000
vn 0.000000 0.000000 -1.000000
vn -0.000001 0.000000 1.000000
vn -0.000001 0.000000 1.000000
vn -0.000001 0.000000 1.000000
vn -0.000001 0.000000 1.000000
vn 0.000000 0.000000 -1.000000
vn 0.000000 0.000000 -1.000000
vn 0.000000 0.000000 -1.000000
vn 0.000000 0.000000 -1.000000
vn 0.000001 0.000000 1.000000
vn 0.000001 0.000000 1.000000
vn 0.000001 0.000000 1.000000
vn 0.000001 0.000000 1.000000
vn 0.000000 0.000000 -1.000000
vn 0.000000 0.000000 -1.000000
vn 0.000000 0.000000 -1.000000
vn 0.000000 0.000000 -1.000000
vn 0.000000 -1.000000 0.000000
vn 0.000000 -1.000000 0.000000
vn 0.000000 -1.000000 0.000000
vn 0.000000 -1.000000 0.000000
vn 0.000000 -1.000000 0.000000
vn 0.000000 -1.000000 0.000000
vn 0.000000 -1.000000 0.000000
vn 0.000000 -1.000000 0.000000
vn 0.000000 -1.000000 0.000000
vn 0.000000 -1.000000 0.000000
vn 0.000000 -1.000000 0.000000
vn 0.000000 -1.000000 0.000000
vn 0.000000 -1.000000 0.000000
vn 0.000000 -1.000000 0.000000
vn 0.000000 -1.000000 0.000000
vn 0.000000 -1.000000 0.000000
vn 0.000000 -1.000000 0.000000
vn 0.000000 -1.000000 0.000000
vn 0.000000 -1.000000 0.000000
vn 0.000000 -1.000000 0.000000
vn 0.000000 -1.000000 0.000000
vn 0.000000 -1.000000 0.000000
vn 0.000000 -1.000000 0.000000
vn 0.000000 -1.000000 0.000000
s off
g city:city1
f 2/29/1 3/30/2 5/31/3 4/32/4
f 4/141/5 5/142/6 7/143/7 6/144/8
f 6/159/9 1/160/10 2/161/11 4/162/12
f 9/33/13 10/34/14 12/35/15 11/36/16
f 62/147/17 63/148/18 28/145/19 5/142/20
f 18/150/21 28/145/22 63/148/23 64/153/24
f 14/165/25 15/169/26 17/170/27 16/166/28
f 16/37/29 17/38/30 18/39/31 3/40/32
f 15/154/33 8/149/34 18/150/35 17/155/36
f 29/164/37 16/166/38 21/171/39 20/167/40
f 20/41/41 21/42/42 23/43/43 22/44/44
f 2/161/45 29/164/46 20/167/47 22/168/48
f 34/45/49 38/46/50 39/47/51 26/48/52
f 5/142/53 28/145/54 13/146/55 7/143/56
f 8/149/57 13/146/58 28/145/59 18/150/60
f 19/163/61 14/165/62 16/166/63 29/164/64
f 1/160/65 19/163/66 29/164/67 2/161/68
f 32/62/69 37/63/70 50/59/71 51/58/72
f 24/68/73 36/69/74 37/63/75 32/62/76
f 30/53/77 19/54/78 46/50/79 47/49/80
f 36/69/81 56/74/82 57/70/83 37/63/84
f 50/59/85 37/63/86 57/70/87 14/64/88
f 39/47/89 38/46/90 58/51/91 59/52/92
f 40/84/93 25/88/94 33/87/95 41/85/96
f 49/82/97 41/85/98 33/87/99 48/83/100
f 45/71/101 13/76/102 31/79/103 44/77/104
f 43/67/105 42/66/106 35/72/107 27/73/108
f 42/66/109 45/71/110 44/77/111 35/72/112
f 38/46/113 46/50/114 1/55/115 58/51/116
f 47/49/117 46/50/118 38/46/119 34/45/120
f 13/76/121 49/82/122 48/83/123 31/79/124
f 51/58/125 50/59/126 19/54/127 30/53/128
f 52/80/129 40/84/130 41/85/131 53/81/132
f 8/86/133 53/81/134 41/85/135 49/82/136
f 54/60/137 7/65/138 45/71/139 42/66/140
f 55/61/141 54/60/142 42/66/143 43/67/144
f 56/74/145 60/78/146 15/75/147 57/70/148
f 59/52/149 58/51/150 6/56/151 61/57/152
f 60/78/153 52/80/154 53/81/155 15/75/156
f 61/57/157 6/56/158 54/60/159 55/61/160
f 6/56/161 7/65/162 54/60/163
f 1/55/164 6/56/165 58/51/166
f 14/64/167 19/54/168 50/59/169
f 15/75/170 14/64/171 57/70/172
f 8/86/173 15/75/174 53/81/175
f 13/76/176 8/86/177 49/82/178
f 7/65/179 13/76/180 45/71/181
f 19/54/182 1/55/183 46/50/184
f 11/151/185 12/152/186 63/148/187 62/147/188
f 64/153/189 63/148/190 12/152/191 10/156/192
f 65/174/193 64/175/194 10/176/195 9/177/196
f 62/147/197 65/157/198 9/158/199 11/151/200
f 5/180/201 3/178/202 65/174/203 62/181/204
f 3/172/205 2/161/206 22/168/207 23/173/208
f 3/178/209 18/179/210 64/175/211 65/174/212
f 16/182/213 3/183/214 23/184/215 21/185/216
f 36/113/217 24/114/218 66/115/219 67/116/220
f 33/1/221 25/2/222 68/3/223 69/4/224
f 43/127/225 27/128/226 70/129/227 71/130/228
f 34/15/229 26/16/230 72/17/231 73/18/232
f 51/23/233 30/21/234 74/22/235 75/24/236
f 44/9/237 31/7/238 76/8/239 77/10/240
f 24/27/241 32/25/242 78/26/243 66/28/244
f 48/5/245 33/1/246 69/4/247 79/6/248
f 47/19/249 34/15/250 73/18/251 80/20/252
f 27/13/253 35/11/254 81/12/255 70/14/256
f 56/117/257 36/113/258 67/116/259 82/118/260
f 26/139/261 39/137/262 83/138/263 72/140/264
f 25/125/265 40/123/266 84/124/267 68/126/268
f 55/131/269 43/127/270 71/130/271 85/132/272
f 35/11/273 44/9/274 77/10/275 81/12/276
f 30/21/277 47/19/278 80/20/279 74/22/280
f 31/7/281 48/5/282 79/6/283 76/8/284
f 32/25/285 51/23/286 75/24/287 78/26/288
f 40/123/289 52/121/290 86/122/291 84/124/292
f 61/133/293 55/131/294 85/132/295 87/134/296
f 60/119/297 56/117/298 82/118/299 88/120/300
f 39/137/301 59/135/302 89/136/303 83/138/304
f 52/121/305 60/119/306 88/120/307 86/122/308
f 59/135/309 61/133/310 87/134/311 89/136/312
f 67/89/313 66/90/314 78/91/315 75/92/316 74/93/317 80/94/318 73/95/319 72/96/320 83/97/321 89/98/322 87/99/323 85/100/324 71/101/325 70/102/326 81/103/327 77/104/328 76/105/329 79/106/330 69/107/331 68/108/332 84/109/333 86/110/334 88/111/335 82/112/336
