{
	"asset":{
		"version":"2.0",
		"generator":"Houdini GLTF 2.0 Exporter"
	},
	"accessors":[
		{
			"bufferView":0,
			"componentType":5123,
			"count":516,
			"type":"SCALAR",
			"min":[0
			],
			"max":[279
			]
		},
		{
			"bufferView":1,
			"componentType":5126,
			"count":280,
			"type":"VEC3",
			"min":[-0.981756985,0.0038960001,-1.63689101
			],
			"max":[0.981912971,1.66932499,4.53763103
			]
		},
		{
			"bufferView":2,
			"componentType":5126,
			"count":280,
			"type":"VEC4",
			"min":[-0.500000596,-1,-1,1
			],
			"max":[1,1,5.93377672e-06,1
			]
		},
		{
			"bufferView":3,
			"componentType":5126,
			"count":280,
			"type":"VEC2",
			"min":[0.00198099995,0.00199198723
			],
			"max":[0.992461979,0.998008013
			]
		},
		{
			"bufferView":4,
			"componentType":5126,
			"count":280,
			"type":"VEC3",
			"min":[-1,-1,-1
			],
			"max":[1,1,1
			]
		}
	],
	"buffers":[
		{
			"uri":"model_data.bin",
			"byteLength":14472,
			"name":"main_buffer"
		}
	],
	"bufferViews":[
		{
			"buffer":0,
			"byteLength":1032,
			"target":34963
		},
		{
			"buffer":0,
			"byteOffset":1032,
			"byteLength":3360,
			"target":34962
		},
		{
			"buffer":0,
			"byteOffset":4392,
			"byteLength":4480,
			"target":34962
		},
		{
			"buffer":0,
			"byteOffset":8872,
			"byteLength":2240,
			"target":34962
		},
		{
			"buffer":0,
			"byteOffset":11112,
			"byteLength":3360,
			"target":34962
		}
	],
	"nodes":[
		{
			"name":"car",
			"mesh":0
		}
	],
	"meshes":[
		{
			"primitives":[
				{
					"attributes":{
						"NORMAL":4,
						"TEXCOORD_0":3,
						"TANGENT":2,
						"POSITION":1
					},
					"indices":0
				}
			],
			"name":"car"
		}
	],
	"scenes":[
		{
			"nodes":[0
			]
		}
	],
	"scene":0
}
