# This file uses centimeters as units for non-parametric coordinates.

mtllib model.mtl
g default
v -10.550144 0.003672 6.810002
v 12.864709 0.003672 6.810002
v -10.550144 20.293947 6.810002
v 12.864709 20.293947 6.810002
v -24.785004 20.293947 -28.522182
v 27.099558 20.293947 -28.522182
v -24.785004 0.003672 -28.522182
v 27.099558 0.003672 -28.522182
v -120.021530 0.003672 171.998428
v 122.336098 0.003672 171.998428
v -267.360718 0.003672 -193.710617
v 269.675293 0.003672 -193.710617
v -25.322426 4.696126 51.837334
v -21.721222 4.696126 55.305950
v -18.120012 4.696126 58.774570
v -14.518813 4.696126 62.243195
v -10.917607 4.696126 65.711815
v -7.316400 4.696126 69.180435
v -3.715202 4.696126 72.649055
v -0.113992 4.696126 76.117676
v 3.487208 4.696126 79.586288
v 7.088416 4.696126 83.054916
v 10.689618 4.696126 86.523529
v -21.853802 4.696126 48.236122
v -18.252596 4.696126 51.704746
v -14.651392 4.696126 55.173367
v -11.050188 4.696126 58.641987
v -7.448985 4.696126 62.110603
v -3.847782 4.696126 65.579231
v -0.246578 4.696126 69.047844
v 3.354629 4.696126 72.516472
v 6.955831 4.696126 75.985092
v 10.557033 4.696126 79.453705
v 14.158242 4.696126 82.922333
v -35.848106 -0.936913 41.699169
v -25.321953 3.703081 51.837784
v -32.379486 -0.936913 38.097958
v -18.120012 3.703081 58.774570
v -14.518813 3.703081 62.243195
v -10.917607 3.703081 65.711815
v -7.316400 3.703081 69.180435
v -3.715202 3.703081 72.649055
v -0.113992 3.703081 76.117676
v 3.487208 3.703081 79.586288
v 10.689151 3.703081 86.523079
v 21.215302 -0.936913 96.661697
v 24.683926 -0.936913 93.060493
v -21.853325 3.703081 48.236580
v -14.651392 3.703081 55.173367
v -11.050188 3.703081 58.641987
v -7.448985 3.703081 62.110603
v -3.847782 3.703081 65.579231
v -0.246578 3.703081 69.047844
v 3.354629 3.703081 72.516472
v 6.955831 3.703081 75.985092
v 14.157763 3.703081 82.921875
v -107.953003 -18.413084 -51.463890
v -57.953003 -18.413084 -51.463890
v -107.953003 81.586914 -51.463890
v -57.953003 81.586914 -51.463890
v -107.953003 81.586914 -101.463890
v -57.953003 81.586914 -101.463890
v -107.953003 -18.413084 -101.463890
v -57.953003 -18.413084 -101.463890
v -92.503685 0.000000 -116.668961
v -42.503685 0.000000 -116.668961
v -92.503685 100.000000 -116.668961
v -42.503685 100.000000 -116.668961
v -92.503685 100.000000 -166.668961
v -42.503685 100.000000 -166.668961
v -92.503685 0.000000 -166.668961
v -42.503685 0.000000 -166.668961
v 40.622688 -16.224564 -116.668961
v 90.622688 -16.224564 -116.668961
v 40.622688 83.775436 -116.668961
v 90.622688 83.775436 -116.668961
v 40.622688 83.775436 -166.668961
v 90.622688 83.775436 -166.668961
v 40.622688 -16.224564 -166.668961
v 90.622688 -16.224564 -166.668961
v 75.242348 0.000000 -45.110237
v 125.242348 0.000000 -45.110237
v 75.242348 100.000000 -45.110237
v 125.242348 100.000000 -45.110237
v 75.242348 100.000000 -95.110237
v 125.242348 100.000000 -95.110237
v 75.242348 0.000000 -95.110237
v 125.242348 0.000000 -95.110237
vt 0.647925 0.325175
vt 0.647925 0.277791
vt 0.675136 0.277791
vt 0.675136 0.325175
vt 0.681235 0.325175
vt 0.681235 0.277791
vt 0.708446 0.277791
vt 0.708446 0.325175
vt 0.647925 0.001992
vt 0.714980 0.001992
vt 0.714980 0.136102
vt 0.647925 0.136102
vt 0.721948 0.001992
vt 0.789002 0.001992
vt 0.789002 0.136102
vt 0.721948 0.136102
vt 0.880573 0.139892
vt 0.947628 0.139892
vt 0.947628 0.274001
vt 0.880573 0.274001
vt 0.807693 0.139892
vt 0.874748 0.139892
vt 0.874748 0.274001
vt 0.807693 0.274001
vt 0.297530 0.725999
vt 0.364585 0.725999
vt 0.364585 0.860109
vt 0.297530 0.860109
vt 0.224650 0.725999
vt 0.291705 0.725999
vt 0.291705 0.860109
vt 0.224650 0.860109
vt 0.006009 0.725999
vt 0.073064 0.725999
vt 0.073064 0.860109
vt 0.006009 0.860109
vt 0.001891 0.863899
vt 0.068946 0.863899
vt 0.068946 0.998008
vt 0.001891 0.998008
vt 0.190834 0.914390
vt 0.190834 0.882989
vt 0.238218 0.863899
vt 0.238218 0.933481
vt 0.223425 0.346400
vt 0.223425 0.377801
vt 0.001891 0.524613
vt 0.001891 0.199588
vt 0.270809 0.396892
vt 0.492342 0.722209
vt 0.270809 0.327309
vt 0.492342 0.001992
vt 0.136213 0.930962
vt 0.131561 0.926132
vt 0.136391 0.921481
vt 0.141043 0.926310
vt 0.126910 0.921303
vt 0.131739 0.916651
vt 0.154639 0.940426
vt 0.149809 0.945078
vt 0.122258 0.916473
vt 0.127087 0.911821
vt 0.117606 0.911644
vt 0.122436 0.906992
vt 0.112954 0.906814
vt 0.117784 0.902162
vt 0.108303 0.901985
vt 0.113132 0.897333
vt 0.103651 0.897155
vt 0.108480 0.892503
vt 0.098999 0.892325
vt 0.103829 0.887674
vt 0.094347 0.887496
vt 0.099177 0.882844
vt 0.089696 0.882666
vt 0.094525 0.878015
vt 0.076099 0.868550
vt 0.080929 0.863899
vt 0.277811 0.863899
vt 0.344866 0.863899
vt 0.344866 0.930953
vt 0.277811 0.930953
vt 0.351834 0.863899
vt 0.418889 0.863899
vt 0.418889 0.930953
vt 0.351834 0.930953
vt 0.499879 0.863899
vt 0.566934 0.863899
vt 0.566934 0.930953
vt 0.499879 0.930953
vt 0.573902 0.277791
vt 0.640957 0.277791
vt 0.640957 0.344846
vt 0.573902 0.344846
vt 0.714545 0.309193
vt 0.714545 0.277791
vt 0.741756 0.277791
vt 0.741756 0.309193
vt 0.244501 0.933481
vt 0.244501 0.863899
vt 0.271712 0.863899
vt 0.271712 0.933481
vt 0.499879 0.001992
vt 0.566934 0.001992
vt 0.566934 0.136102
vt 0.499879 0.136102
vt 0.573902 0.001992
vt 0.640957 0.001992
vt 0.640957 0.136102
vt 0.573902 0.136102
vt 0.795970 0.001992
vt 0.863025 0.001992
vt 0.863025 0.136102
vt 0.795970 0.136102
vt 0.869993 0.001992
vt 0.937048 0.001992
vt 0.937048 0.136102
vt 0.869993 0.136102
vt 0.443291 0.725999
vt 0.510346 0.725999
vt 0.510346 0.860109
vt 0.443291 0.860109
vt 0.370411 0.725999
vt 0.437465 0.725999
vt 0.437465 0.860108
vt 0.370411 0.860108
vt 0.151770 0.725999
vt 0.218824 0.725999
vt 0.218824 0.860109
vt 0.151770 0.860109
vt 0.078889 0.725999
vt 0.145944 0.725999
vt 0.145944 0.860109
vt 0.078889 0.860109
vt 0.168780 0.919360
vt 0.168780 0.924012
vt 0.161225 0.937608
vt 0.167448 0.924012
vt 0.168780 0.914709
vt 0.167448 0.914709
vt 0.168780 0.910057
vt 0.167448 0.910057
vt 0.168780 0.905405
vt 0.167448 0.905405
vt 0.168780 0.900753
vt 0.167448 0.900753
vt 0.168780 0.896102
vt 0.167448 0.896102
vt 0.168780 0.891450
vt 0.167448 0.891450
vt 0.168780 0.886798
vt 0.167448 0.886798
vt 0.168780 0.882146
vt 0.167448 0.877495
vt 0.168780 0.877495
vt 0.161225 0.863899
vt 0.183584 0.877495
vt 0.183584 0.882146
vt 0.182253 0.877495
vt 0.176030 0.863899
vt 0.183584 0.886798
vt 0.182253 0.886798
vt 0.183584 0.891450
vt 0.182253 0.891450
vt 0.183584 0.896102
vt 0.182253 0.896102
vt 0.183584 0.900753
vt 0.182253 0.900753
vt 0.183584 0.905405
vt 0.182253 0.905405
vt 0.183584 0.910057
vt 0.182253 0.910057
vt 0.183584 0.914709
vt 0.182253 0.914709
vt 0.183584 0.919360
vt 0.182253 0.924012
vt 0.183584 0.924012
vt 0.176030 0.937608
vn 0.000000 0.000000 1.000000
vn 0.000000 0.000000 1.000000
vn 0.000000 0.000000 1.000000
vn 0.000000 0.000000 1.000000
vn 0.000000 1.000000 -0.000000
vn 0.000000 1.000000 -0.000000
vn 0.000000 1.000000 -0.000000
vn 0.000000 1.000000 -0.000000
vn 0.000000 0.000000 -1.000000
vn 0.000000 0.000000 -1.000000
vn 0.000000 0.000000 -1.000000
vn 0.000000 0.000000 -1.000000
vn 0.927551 0.000000 0.373697
vn 0.927551 0.000000 0.373697
vn 0.927551 0.000000 0.373697
vn 0.927551 0.000000 0.373697
vn -0.927551 0.000000 0.373698
vn -0.927551 0.000000 0.373698
vn -0.927551 0.000000 0.373698
vn -0.927551 0.000000 0.373698
vn 0.000000 1.000000 0.000000
vn 0.000000 1.000000 0.000000
vn 0.000000 1.000000 0.000000
vn 0.000000 1.000000 0.000000
vn 0.000000 1.000000 0.000000
vn 0.000000 1.000000 0.000000
vn 0.000000 1.000000 0.000000
vn 0.000000 1.000000 0.000000
vn 0.000000 1.000000 -0.000000
vn 0.000000 1.000000 -0.000000
vn 0.000000 1.000000 -0.000000
vn 0.000000 1.000000 -0.000000
vn 0.000000 1.000000 -0.000000
vn 0.000000 1.000000 -0.000000
vn 0.000000 1.000000 -0.000000
vn 0.000000 1.000000 -0.000000
vn 0.000000 1.000000 -0.000000
vn 0.000000 1.000000 -0.000000
vn 0.000000 1.000000 -0.000000
vn 0.000000 1.000000 -0.000000
vn 0.000000 1.000000 0.000000
vn 0.000000 1.000000 0.000000
vn 0.000000 1.000000 -0.000000
vn 0.000000 1.000000 -0.000000
vn 0.000000 1.000000 -0.000000
vn 0.000000 1.000000 -0.000000
vn 0.000000 1.000000 0.000000
vn 0.000000 1.000000 0.000000
vn 0.000000 1.000000 -0.000000
vn 0.000000 1.000000 -0.000000
vn 0.000000 1.000000 -0.000000
vn 0.000000 1.000000 -0.000000
vn 0.000000 1.000000 -0.000000
vn 0.000000 1.000000 -0.000000
vn 0.000000 1.000000 0.000000
vn 0.000000 1.000000 0.000000
vn 0.000000 1.000000 0.000000
vn 0.000000 1.000000 0.000000
vn -0.693723 -0.000004 0.720242
vn -0.693723 -0.000004 0.720242
vn -0.693723 -0.000004 0.720242
vn -0.693723 -0.000004 0.720242
vn -0.259041 0.933084 -0.249504
vn -0.259041 0.933084 -0.249504
vn -0.259041 0.933084 -0.249504
vn -0.259041 0.933084 -0.249504
vn -0.693724 -0.000002 0.720241
vn -0.693724 -0.000002 0.720241
vn -0.693724 -0.000002 0.720241
vn -0.693724 -0.000002 0.720241
vn -0.693725 0.000000 0.720240
vn -0.693725 0.000000 0.720240
vn -0.693725 0.000000 0.720240
vn -0.693725 0.000000 0.720240
vn -0.693724 0.000000 0.720241
vn -0.693724 0.000000 0.720241
vn -0.693724 0.000000 0.720241
vn -0.693724 0.000000 0.720241
vn -0.693724 0.000000 0.720241
vn -0.693724 0.000000 0.720241
vn -0.693724 0.000000 0.720241
vn -0.693724 0.000000 0.720241
vn -0.693725 0.000000 0.720240
vn -0.693725 0.000000 0.720240
vn -0.693725 0.000000 0.720240
vn -0.693725 0.000000 0.720240
vn -0.693723 0.000000 0.720242
vn -0.693723 0.000000 0.720242
vn -0.693723 0.000000 0.720242
vn -0.693723 0.000000 0.720242
vn -0.693724 0.000000 0.720241
vn -0.693724 0.000000 0.720241
vn -0.693724 0.000000 0.720241
vn -0.693724 0.000000 0.720241
vn -0.693724 -0.000002 0.720241
vn -0.693724 -0.000002 0.720241
vn -0.693724 -0.000002 0.720241
vn -0.693724 -0.000002 0.720241
vn -0.693723 -0.000002 0.720242
vn -0.693723 -0.000002 0.720242
vn -0.693723 -0.000002 0.720242
vn -0.693723 -0.000002 0.720242
vn 0.259041 0.933084 0.249504
vn 0.259041 0.933084 0.249504
vn 0.259041 0.933084 0.249504
vn 0.259041 0.933084 0.249504
vn 0.693723 0.000000 -0.720242
vn 0.693723 0.000000 -0.720242
vn 0.693723 0.000000 -0.720242
vn 0.693723 0.000000 -0.720242
vn 0.693724 0.000001 -0.720241
vn 0.693724 0.000001 -0.720241
vn 0.693724 0.000001 -0.720241
vn 0.693724 0.000001 -0.720241
vn 0.693724 0.000000 -0.720241
vn 0.693724 0.000000 -0.720241
vn 0.693724 0.000000 -0.720241
vn 0.693724 0.000000 -0.720241
vn 0.693724 0.000000 -0.720241
vn 0.693724 0.000000 -0.720241
vn 0.693724 0.000000 -0.720241
vn 0.693724 0.000000 -0.720241
vn 0.693725 0.000000 -0.720240
vn 0.693725 0.000000 -0.720240
vn 0.693725 0.000000 -0.720240
vn 0.693725 0.000000 -0.720240
vn 0.693723 0.000000 -0.720242
vn 0.693723 0.000000 -0.720242
vn 0.693723 0.000000 -0.720242
vn 0.693723 0.000000 -0.720242
vn 0.693725 0.000000 -0.720240
vn 0.693725 0.000000 -0.720240
vn 0.693725 0.000000 -0.720240
vn 0.693725 0.000000 -0.720240
vn 0.693724 0.000000 -0.720241
vn 0.693724 0.000000 -0.720241
vn 0.693724 0.000000 -0.720241
vn 0.693724 0.000000 -0.720241
vn 0.693724 -0.000002 -0.720241
vn 0.693724 -0.000002 -0.720241
vn 0.693724 -0.000002 -0.720241
vn 0.693724 -0.000002 -0.720241
vn 0.693723 0.000000 -0.720242
vn 0.693723 0.000000 -0.720242
vn 0.693723 0.000000 -0.720242
vn 0.693723 0.000000 -0.720242
vn 0.000000 0.000000 1.000000
vn 0.000000 0.000000 1.000000
vn 0.000000 0.000000 1.000000
vn 0.000000 0.000000 1.000000
vn 0.000000 1.000000 0.000000
vn 0.000000 1.000000 0.000000
vn 0.000000 1.000000 0.000000
vn 0.000000 1.000000 0.000000
vn 0.000000 0.000000 -1.000000
vn 0.000000 0.000000 -1.000000
vn 0.000000 0.000000 -1.000000
vn 0.000000 0.000000 -1.000000
vn 1.000000 0.000000 0.000000
vn 1.000000 0.000000 0.000000
vn 1.000000 0.000000 0.000000
vn 1.000000 0.000000 0.000000
vn -1.000000 0.000000 0.000000
vn -1.000000 0.000000 0.000000
vn -1.000000 0.000000 0.000000
vn -1.000000 0.000000 0.000000
vn 0.000000 0.000000 1.000000
vn 0.000000 0.000000 1.000000
vn 0.000000 0.000000 1.000000
vn 0.000000 0.000000 1.000000
vn 0.000000 1.000000 0.000000
vn 0.000000 1.000000 0.000000
vn 0.000000 1.000000 0.000000
vn 0.000000 1.000000 0.000000
vn 0.000000 0.000000 -1.000000
vn 0.000000 0.000000 -1.000000
vn 0.000000 0.000000 -1.000000
vn 0.000000 0.000000 -1.000000
vn 1.000000 0.000000 0.000000
vn 1.000000 0.000000 0.000000
vn 1.000000 0.000000 0.000000
vn 1.000000 0.000000 0.000000
vn -1.000000 0.000000 0.000000
vn -1.000000 0.000000 0.000000
vn -1.000000 0.000000 0.000000
vn -1.000000 0.000000 0.000000
vn 0.000000 0.000000 1.000000
vn 0.000000 0.000000 1.000000
vn 0.000000 0.000000 1.000000
vn 0.000000 0.000000 1.000000
vn 0.000000 1.000000 0.000000
vn 0.000000 1.000000 0.000000
vn 0.000000 1.000000 0.000000
vn 0.000000 1.000000 0.000000
vn 0.000000 0.000000 -1.000000
vn 0.000000 0.000000 -1.000000
vn 0.000000 0.000000 -1.000000
vn 0.000000 0.000000 -1.000000
vn 1.000000 0.000000 0.000000
vn 1.000000 0.000000 0.000000
vn 1.000000 0.000000 0.000000
vn 1.000000 0.000000 0.000000
vn -1.000000 0.000000 0.000000
vn -1.000000 0.000000 0.000000
vn -1.000000 0.000000 0.000000
vn -1.000000 0.000000 0.000000
vn 0.000000 0.000000 1.000000
vn 0.000000 0.000000 1.000000
vn 0.000000 0.000000 1.000000
vn 0.000000 0.000000 1.000000
vn 0.000000 1.000000 0.000000
vn 0.000000 1.000000 0.000000
vn 0.000000 1.000000 0.000000
vn 0.000000 1.000000 0.000000
vn 0.000000 0.000000 -1.000000
vn 0.000000 0.000000 -1.000000
vn 0.000000 0.000000 -1.000000
vn 0.000000 0.000000 -1.000000
vn 1.000000 0.000000 0.000000
vn 1.000000 0.000000 0.000000
vn 1.000000 0.000000 0.000000
vn 1.000000 0.000000 0.000000
vn -1.000000 0.000000 0.000000
vn -1.000000 0.000000 0.000000
vn -1.000000 0.000000 0.000000
vn -1.000000 0.000000 0.000000
s off
g GEO1
usemtl initialShadingGroup
f 1/95/1 2/96/2 4/97/3 3/98/4
f 3/41/5 4/42/6 6/43/7 5/44/8
f 5/99/9 6/100/10 8/101/11 7/102/12
f 2/1/13 8/2/14 6/3/15 4/4/16
f 7/5/17 1/6/18 3/7/19 5/8/20
f 2/45/21 1/46/22 9/47/23 10/48/24
f 7/49/25 8/51/26 12/52/27 11/50/28
f 1/46/29 7/49/30 11/50/31 9/47/32
f 8/51/33 2/45/34 10/48/35 12/52/36
s 1
f 13/53/37 14/54/38 25/55/39 24/56/40
f 14/54/38 15/57/41 26/58/42 25/55/39
f 15/57/41 16/61/43 27/62/44 26/58/42
f 16/61/43 17/63/45 28/64/46 27/62/44
f 17/63/45 18/65/47 29/66/48 28/64/46
f 18/65/47 19/67/49 30/68/50 29/66/48
f 19/67/49 20/69/51 31/70/52 30/68/50
f 20/69/51 21/71/53 32/72/54 31/70/52
f 21/71/53 22/73/55 33/74/56 32/72/54
f 22/73/55 23/75/57 34/76/58 33/74/56
s off
f 14/135/59 13/136/60 35/137/61 36/138/62
f 13/53/63 24/56/64 37/59/65 35/60/66
f 15/139/67 14/135/68 36/138/69 38/140/70
f 16/141/71 15/139/72 38/140/73 39/142/74
f 17/143/75 16/141/76 39/142/77 40/144/78
f 18/145/79 17/143/80 40/144/81 41/146/82
f 19/147/83 18/145/84 41/146/85 42/148/86
f 20/149/87 19/147/88 42/148/89 43/150/90
f 21/151/91 20/149/92 43/150/93 44/152/94
f 22/153/95 21/151/96 44/152/97 45/154/98
f 23/155/99 22/153/100 45/154/101 46/156/102
f 34/76/103 23/75/104 46/77/105 47/78/106
f 24/157/107 25/158/108 48/159/109 37/160/110
f 25/158/111 26/161/112 49/162/113 48/159/114
f 26/161/115 27/163/116 50/164/117 49/162/118
f 27/163/119 28/165/120 51/166/121 50/164/122
f 28/165/123 29/167/124 52/168/125 51/166/126
f 29/167/127 30/169/128 53/170/129 52/168/130
f 30/169/131 31/171/132 54/172/133 53/170/134
f 31/171/135 32/173/136 55/174/137 54/172/138
f 32/173/139 33/175/140 56/176/141 55/174/142
f 33/175/143 34/177/144 47/178/145 56/176/146
f 57/103/147 58/104/148 60/105/149 59/106/150
f 59/79/151 60/80/152 62/81/153 61/82/154
f 61/107/155 62/108/156 64/109/157 63/110/158
f 58/9/159 64/10/160 62/11/161 60/12/162
f 63/13/163 57/14/164 59/15/165 61/16/166
f 65/111/167 66/112/168 68/113/169 67/114/170
f 67/83/171 68/84/172 70/85/173 69/86/174
f 69/115/175 70/116/176 72/117/177 71/118/178
f 66/17/179 72/18/180 70/19/181 68/20/182
f 71/21/183 65/22/184 67/23/185 69/24/186
f 73/119/187 74/120/188 76/121/189 75/122/190
f 75/87/191 76/88/192 78/89/193 77/90/194
f 77/123/195 78/124/196 80/125/197 79/126/198
f 74/25/199 80/26/200 78/27/201 76/28/202
f 79/29/203 73/30/204 75/31/205 77/32/206
f 81/127/207 82/128/208 84/129/209 83/130/210
f 83/91/211 84/92/212 86/93/213 85/94/214
f 85/131/215 86/132/216 88/133/217 87/134/218
f 82/33/219 88/34/220 86/35/221 84/36/222
f 87/37/223 81/38/224 83/39/225 85/40/226
