# This file uses centimeters as units for non-parametric coordinates.

mtllib city.mtl
g default
v -25.322424 4.696126 51.837335
v -21.721221 4.696126 55.305954
v -18.120012 4.696126 58.774573
v -14.518813 4.696126 62.243195
v -10.917607 4.696126 65.711818
v -7.316400 4.696126 69.180435
v -3.715202 4.696126 72.649055
v -0.113991 4.696126 76.117676
v 3.487209 4.696126 79.586293
v 7.088417 4.696126 83.054917
v 10.689618 4.696126 86.523534
v -21.853803 4.696126 48.236124
v -18.252596 4.696126 51.704748
v -14.651392 4.696126 55.173369
v -11.050187 4.696126 58.641989
v -7.448985 4.696126 62.110608
v -3.847782 4.696126 65.579234
v -0.246578 4.696126 69.047848
v 3.354629 4.696126 72.516472
v 6.955830 4.696126 75.985096
v 10.557034 4.696126 79.453709
v 14.158242 4.696126 82.922333
v -35.848104 -0.936913 41.699173
v -25.321953 3.703081 51.837788
v -32.379485 -0.936913 38.097961
v -18.120012 3.703081 58.774573
v -14.518813 3.703081 62.243195
v -10.917607 3.703081 65.711818
v -7.316400 3.703081 69.180435
v -3.715202 3.703081 72.649055
v -0.113991 3.703081 76.117676
v 3.487209 3.703081 79.586293
v 10.689151 3.703081 86.523084
v 21.215300 -0.936913 96.661698
v 24.683924 -0.936913 93.060497
v -21.853326 3.703081 48.236584
v -14.651392 3.703081 55.173369
v -11.050187 3.703081 58.641989
v -7.448985 3.703081 62.110608
v -3.847782 3.703081 65.579234
v -0.246578 3.703081 69.047848
v 3.354629 3.703081 72.516472
v 6.955830 3.703081 75.985096
v 14.157764 3.703081 82.921874
vt 0.000000 0.700000
vt 0.100000 0.700000
vt 0.200000 0.700000
vt 0.300000 0.700000
vt 0.400000 0.700000
vt 0.500000 0.700000
vt 0.600000 0.700000
vt 0.700000 0.700000
vt 0.800000 0.700000
vt 0.900000 0.700000
vt 1.000000 0.700000
vt 0.000000 0.800000
vt 0.100000 0.800000
vt 0.200000 0.800000
vt 0.300000 0.800000
vt 0.400000 0.800000
vt 0.500000 0.800000
vt 0.600000 0.800000
vt 0.700000 0.800000
vt 0.800000 0.800000
vt 0.900000 0.800000
vt 1.000000 0.800000
vt 0.000000 0.000000
vt 1.000000 0.000000
vt 1.000000 1.000000
vt 0.000000 1.000000
vt 0.000000 0.000000
vt 1.000000 0.000000
vt 1.000000 1.000000
vt 0.000000 1.000000
vt 0.000000 0.000000
vt 1.000000 0.000000
vt 1.000000 1.000000
vt 0.000000 1.000000
vt 0.000000 0.000000
vt 1.000000 0.000000
vt 1.000000 1.000000
vt 0.000000 1.000000
vt 0.000000 0.000000
vt 1.000000 0.000000
vt 1.000000 1.000000
vt 0.000000 1.000000
vt 0.000000 0.000000
vt 1.000000 0.000000
vt 1.000000 1.000000
vt 0.000000 1.000000
vt 0.000000 0.000000
vt 1.000000 0.000000
vt 1.000000 1.000000
vt 0.000000 1.000000
vt 0.000000 0.000000
vt 1.000000 0.000000
vt 1.000000 1.000000
vt 0.000000 1.000000
vt 0.000000 0.000000
vt 1.000000 0.000000
vt 1.000000 1.000000
vt 0.000000 1.000000
vt 0.000000 0.000000
vt 1.000000 0.000000
vt 1.000000 1.000000
vt 0.000000 1.000000
vt 0.000000 0.000000
vt 1.000000 0.000000
vt 1.000000 1.000000
vt 0.000000 1.000000
vt 0.000000 0.000000
vt 1.000000 0.000000
vt 1.000000 1.000000
vt 0.000000 1.000000
vt 0.000000 0.000000
vt 1.000000 0.000000
vt 1.000000 1.000000
vt 0.000000 1.000000
vt 0.000000 0.000000
vt 1.000000 0.000000
vt 1.000000 1.000000
vt 0.000000 1.000000
vt 0.000000 0.000000
vt 1.000000 0.000000
vt 1.000000 1.000000
vt 0.000000 1.000000
vt 0.000000 0.000000
vt 1.000000 0.000000
vt 1.000000 1.000000
vt 0.000000 1.000000
vt 0.000000 0.000000
vt 1.000000 0.000000
vt 1.000000 1.000000
vt 0.000000 1.000000
vt 0.000000 0.000000
vt 1.000000 0.000000
vt 1.000000 1.000000
vt 0.000000 1.000000
vt 0.000000 0.000000
vt 1.000000 0.000000
vt 1.000000 1.000000
vt 0.000000 1.000000
vt 0.000000 0.000000
vt 1.000000 0.000000
vt 1.000000 1.000000
vt 0.000000 1.000000
vt 0.000000 0.000000
vt 1.000000 0.000000
vt 1.000000 1.000000
vt 0.000000 1.000000
vt 0.000000 0.000000
vt 1.000000 0.000000
vt 1.000000 1.000000
vt 0.000000 1.000000
vn 0.000000 1.000000 0.000000
vn 0.000000 1.000000 0.000000
vn 0.000000 1.000000 0.000000
vn 0.000000 1.000000 0.000000
vn 0.000000 1.000000 0.000000
vn 0.000000 1.000000 0.000000
vn 0.000000 1.000000 0.000000
vn 0.000000 1.000000 0.000000
vn 0.000000 1.000000 0.000000
vn 0.000000 1.000000 0.000000
vn 0.000000 1.000000 0.000000
vn 0.000000 1.000000 0.000000
vn 0.000000 1.000000 0.000000
vn 0.000000 1.000000 0.000000
vn 0.000000 1.000000 0.000000
vn 0.000000 1.000000 0.000000
vn 0.000000 1.000000 0.000000
vn 0.000000 1.000000 0.000000
vn 0.000000 1.000000 0.000000
vn 0.000000 1.000000 0.000000
vn 0.000000 1.000000 0.000000
vn 0.000000 1.000000 0.000000
vn -0.693724 0.000000 0.720241
vn -0.693724 0.000000 0.720241
vn -0.693724 0.000000 0.720241
vn -0.693724 0.000000 0.720241
vn -0.259041 0.933084 -0.249504
vn -0.259041 0.933084 -0.249504
vn -0.259041 0.933084 -0.249504
vn -0.259041 0.933084 -0.249504
vn -0.693724 -0.000002 0.720241
vn -0.693724 -0.000002 0.720241
vn -0.693724 -0.000002 0.720241
vn -0.693724 -0.000002 0.720241
vn -0.693725 0.000000 0.720240
vn -0.693725 0.000000 0.720240
vn -0.693725 0.000000 0.720240
vn -0.693725 0.000000 0.720240
vn -0.693724 0.000000 0.720241
vn -0.693724 0.000000 0.720241
vn -0.693724 0.000000 0.720241
vn -0.693724 0.000000 0.720241
vn -0.693723 0.000000 0.720241
vn -0.693723 0.000000 0.720241
vn -0.693723 0.000000 0.720241
vn -0.693723 0.000000 0.720241
vn -0.693725 0.000000 0.720240
vn -0.693725 0.000000 0.720240
vn -0.693725 0.000000 0.720240
vn -0.693725 0.000000 0.720240
vn -0.693723 0.000000 0.720241
vn -0.693723 0.000000 0.720241
vn -0.693723 0.000000 0.720241
vn -0.693723 0.000000 0.720241
vn -0.693724 0.000000 0.720241
vn -0.693724 0.000000 0.720241
vn -0.693724 0.000000 0.720241
vn -0.693724 0.000000 0.720241
vn -0.693724 0.000000 0.720241
vn -0.693724 0.000000 0.720241
vn -0.693724 0.000000 0.720241
vn -0.693724 0.000000 0.720241
vn -0.693724 0.000000 0.720241
vn -0.693724 0.000000 0.720241
vn -0.693724 0.000000 0.720241
vn -0.693724 0.000000 0.720241
vn 0.259041 0.933084 0.249504
vn 0.259041 0.933084 0.249504
vn 0.259041 0.933084 0.249504
vn 0.259041 0.933084 0.249504
vn 0.693724 0.000000 -0.720241
vn 0.693724 0.000000 -0.720241
vn 0.693724 0.000000 -0.720241
vn 0.693724 0.000000 -0.720241
vn 0.693724 0.000000 -0.720241
vn 0.693724 0.000000 -0.720241
vn 0.693724 0.000000 -0.720241
vn 0.693724 0.000000 -0.720241
vn 0.693724 0.000000 -0.720241
vn 0.693724 0.000000 -0.720241
vn 0.693724 0.000000 -0.720241
vn 0.693724 0.000000 -0.720241
vn 0.693724 0.000000 -0.720241
vn 0.693724 0.000000 -0.720241
vn 0.693724 0.000000 -0.720241
vn 0.693724 0.000000 -0.720241
vn 0.693725 0.000000 -0.720240
vn 0.693725 0.000000 -0.720240
vn 0.693725 0.000000 -0.720240
vn 0.693725 0.000000 -0.720240
vn 0.693723 0.000000 -0.720241
vn 0.693723 0.000000 -0.720241
vn 0.693723 0.000000 -0.720241
vn 0.693723 0.000000 -0.720241
vn 0.693724 0.000000 -0.720241
vn 0.693724 0.000000 -0.720241
vn 0.693724 0.000000 -0.720241
vn 0.693724 0.000000 -0.720241
vn 0.693725 0.000000 -0.720240
vn 0.693725 0.000000 -0.720240
vn 0.693725 0.000000 -0.720240
vn 0.693725 0.000000 -0.720240
vn 0.693724 -0.000002 -0.720241
vn 0.693724 -0.000002 -0.720241
vn 0.693724 -0.000002 -0.720241
vn 0.693724 -0.000002 -0.720241
vn 0.693724 0.000000 -0.720241
vn 0.693724 0.000000 -0.720241
vn 0.693724 0.000000 -0.720241
vn 0.693724 0.000000 -0.720241
s 1
g pPlane1 City
usemtl initialShadingGroup
f 1/1/1 2/2/2 13/13/3 12/12/4
f 2/2/2 3/3/5 14/14/6 13/13/3
f 3/3/5 4/4/7 15/15/8 14/14/6
f 4/4/7 5/5/9 16/16/10 15/15/8
f 5/5/9 6/6/11 17/17/12 16/16/10
f 6/6/11 7/7/13 18/18/14 17/17/12
f 7/7/13 8/8/15 19/19/16 18/18/14
f 8/8/15 9/9/17 20/20/18 19/19/16
f 9/9/17 10/10/19 21/21/20 20/20/18
f 10/10/19 11/11/21 22/22/22 21/21/20
s off
f 2/23/23 1/24/24 23/25/25 24/26/26
f 1/27/27 12/28/28 25/29/29 23/30/30
f 3/31/31 2/32/32 24/33/33 26/34/34
f 4/35/35 3/36/36 26/37/37 27/38/38
f 5/39/39 4/40/40 27/41/41 28/42/42
f 6/43/43 5/44/44 28/45/45 29/46/46
f 7/47/47 6/48/48 29/49/49 30/50/50
f 8/51/51 7/52/52 30/53/53 31/54/54
f 9/55/55 8/56/56 31/57/57 32/58/58
f 10/59/59 9/60/60 32/61/61 33/62/62
f 11/63/63 10/64/64 33/65/65 34/66/66
f 22/67/67 11/68/68 34/69/69 35/70/70
f 12/71/71 13/72/72 36/73/73 25/74/74
f 13/75/75 14/76/76 37/77/77 36/78/78
f 14/79/79 15/80/80 38/81/81 37/82/82
f 15/83/83 16/84/84 39/85/85 38/86/86
f 16/87/87 17/88/88 40/89/89 39/90/90
f 17/91/91 18/92/92 41/93/93 40/94/94
f 18/95/95 19/96/96 42/97/97 41/98/98
f 19/99/99 20/100/100 43/101/101 42/102/102
f 20/103/103 21/104/104 44/105/105 43/106/106
f 21/107/107 22/108/108 35/109/109 44/110/110
g default
v -10.550145 0.003671 6.810002
v 12.864708 0.003671 6.810002
v -10.550145 20.293947 6.810002
v 12.864708 20.293947 6.810002
v -24.785002 20.293947 -28.522184
v 27.099558 20.293947 -28.522184
v -24.785002 0.003671 -28.522184
v 27.099558 0.003671 -28.522184
v -120.021528 0.003671 171.998429
v 122.336098 0.003671 171.998429
v -267.360729 0.003671 -193.710609
v 269.675290 0.003671 -193.710609
vt 0.801594 0.067520
vt 0.801594 0.001992
vt 0.839226 0.001992
vt 0.839226 0.067520
vt 0.846116 0.067521
vt 0.846116 0.001992
vt 0.883747 0.001992
vt 0.883747 0.067521
vt 0.685840 0.071819
vt 0.685840 0.028393
vt 0.751368 0.001992
vt 0.751368 0.098219
vt 0.308188 0.478287
vt 0.308188 0.521713
vt 0.001820 0.724746
vt 0.001820 0.275255
vt 0.373717 0.548114
vt 0.680085 0.998008
vt 0.373717 0.451887
vt 0.680085 0.001992
vt 0.874289 0.114594
vt 0.874289 0.071168
vt 0.911921 0.071168
vt 0.911921 0.114594
vt 0.757073 0.098219
vt 0.757073 0.001992
vt 0.794705 0.001992
vt 0.794705 0.098219
vn 0.000000 0.000000 1.000000
vn 0.000000 0.000000 1.000000
vn 0.000000 0.000000 1.000000
vn 0.000000 0.000000 1.000000
vn 0.000000 1.000000 -0.000000
vn 0.000000 1.000000 -0.000000
vn 0.000000 1.000000 -0.000000
vn 0.000000 1.000000 -0.000000
vn 0.000000 0.000000 -1.000000
vn 0.000000 0.000000 -1.000000
vn 0.000000 0.000000 -1.000000
vn 0.000000 0.000000 -1.000000
vn 0.927551 0.000000 0.373697
vn 0.927551 0.000000 0.373697
vn 0.927551 0.000000 0.373697
vn 0.927551 0.000000 0.373697
vn -0.927551 0.000000 0.373698
vn -0.927551 0.000000 0.373698
vn -0.927551 0.000000 0.373698
vn -0.927551 0.000000 0.373698
vn 0.000000 1.000000 0.000000
vn 0.000000 1.000000 0.000000
vn 0.000000 1.000000 0.000000
vn 0.000000 1.000000 0.000000
vn 0.000000 1.000000 0.000000
vn 0.000000 1.000000 0.000000
vn 0.000000 1.000000 0.000000
vn 0.000000 1.000000 0.000000
vn 0.000000 1.000000 -0.000000
vn 0.000000 1.000000 -0.000000
vn 0.000000 1.000000 -0.000000
vn 0.000000 1.000000 -0.000000
vn 0.000000 1.000000 0.000000
vn 0.000000 1.000000 0.000000
vn 0.000000 1.000000 0.000000
vn 0.000000 1.000000 0.000000
s off
g City pCube1
usemtl initialShadingGroup
f 45/131/111 46/132/112 48/133/113 47/134/114
f 47/119/115 48/120/116 50/121/117 49/122/118
f 49/135/119 50/136/120 52/137/121 51/138/122
f 46/111/123 52/112/124 50/113/125 48/114/126
f 51/115/127 45/116/128 47/117/129 49/118/130
f 46/123/131 45/124/132 53/125/133 54/126/134
f 51/127/135 52/129/136 56/130/137 55/128/138
f 45/124/139 51/127/140 55/128/141 53/125/142
f 52/129/143 46/123/144 54/126/145 56/130/146
