{"asset":{"version":"2.0","generator":"THREE.GLTFExporter r178"},"scenes":[{"nodes":[0]}],"scene":0,"nodes":[{"mesh":0}],"bufferViews":[{"buffer":0,"byteOffset":0,"byteLength":4788,"target":34962,"byteStride":12},{"buffer":0,"byteOffset":4788,"byteLength":800,"target":34963}],"buffers":[{"byteLength":5588,"uri":"data:application/octet-stream;base64,"}],"accessors":[{"bufferView":0,"componentType":5126,"count":399,"max":[24,0.10000000149011612,24],"min":[-24,0.10000000149011612,-24],"type":"VEC3"},{"bufferView":1,"componentType":5123,"count":399,"max":[398],"min":[0],"type":"SCALAR"}],"materials":[{"pbrMetallicRoughness":{"metallicFactor":0,"roughnessFactor":1}}],"meshes":[{"primitives":[{"mode":4,"attributes":{"POSITION":0},"indices":1,"material":0}]}]}