{"asset":{"version":"2.0","generator":"THREE.GLTFExporter r178"},"scenes":[{"nodes":[0]}],"scene":0,"nodes":[{"mesh":0}],"bufferViews":[{"buffer":0,"byteOffset":0,"byteLength":5040,"target":34962,"byteStride":12},{"buffer":0,"byteOffset":5040,"byteLength":840,"target":34963}],"buffers":[{"byteLength":5880,"uri":"data:application/octet-stream;base64,"}],"accessors":[{"bufferView":0,"componentType":5126,"count":420,"max":[24.60000228881836,0.30000001192092896,24.600000381469727],"min":[-24.600000381469727,0.30000001192092896,5.400000095367432],"type":"VEC3"},{"bufferView":1,"componentType":5123,"count":420,"max":[419],"min":[0],"type":"SCALAR"}],"materials":[{"pbrMetallicRoughness":{"metallicFactor":0,"roughnessFactor":1}}],"meshes":[{"primitives":[{"mode":4,"attributes":{"POSITION":0},"indices":1,"material":0}]}]}