{
	"asset":{
		"version":"2.0",
		"generator":"Houdini GLTF 2.0 Exporter"
	},
	"accessors":[
		{
			"bufferView":0,
			"componentType":5123,
			"count":828,
			"type":"SCALAR",
			"min":[0
			],
			"max":[174
			]
		},
		{
			"bufferView":1,
			"componentType":5126,
			"count":175,
			"type":"VEC3",
			"min":[-1.31652832,-0.0166888833,0
			],
			"max":[1.31652832,2.99468994,0
			]
		},
		{
			"bufferView":2,
			"componentType":5126,
			"count":175,
			"type":"VEC3",
			"min":[0,0,0
			],
			"max":[0,0,0
			]
		},
		{
			"bufferView":3,
			"componentType":5126,
			"count":175,
			"type":"VEC3",
			"min":[1,1,1
			],
			"max":[1,1,1
			]
		},
		{
			"bufferView":4,
			"componentType":5126,
			"count":175,
			"type":"VEC3",
			"min":[0,0,0
			],
			"max":[0,0,0
			]
		},
		{
			"bufferView":5,
			"componentType":5126,
			"count":175,
			"type":"VEC4",
			"min":[0.99999994,-0.000129870547,0,1
			],
			"max":[1,0.000141307668,0,1
			]
		},
		{
			"bufferView":6,
			"componentType":5126,
			"count":175,
			"type":"VEC3",
			"min":[0,0,1
			],
			"max":[0,0,1
			]
		},
		{
			"bufferView":7,
			"componentType":5126,
			"count":175,
			"type":"VEC2",
			"min":[0.0611561537,-0.00189638138
			],
			"max":[0.5,1.00189638
			]
		},
		{
			"bufferView":8,
			"componentType":5126,
			"count":175,
			"type":"VEC3",
			"min":[0,0,0
			],
			"max":[0.173999995,0,0
			]
		},
		{
			"bufferView":9,
			"componentType":5126,
			"count":175,
			"type":"SCALAR",
			"min":[1
			],
			"max":[1
			]
		}
	],
	"buffers":[
		{
			"uri":"pictogram_data.bin",
			"byteLength":19156,
			"name":"main_buffer"
		}
	],
	"bufferViews":[
		{
			"buffer":0,
			"byteLength":1656,
			"target":34963
		},
		{
			"buffer":0,
			"byteOffset":1656,
			"byteLength":2100,
			"target":34962
		},
		{
			"buffer":0,
			"byteOffset":3756,
			"byteLength":2100,
			"target":34962
		},
		{
			"buffer":0,
			"byteOffset":5856,
			"byteLength":2100,
			"target":34962
		},
		{
			"buffer":0,
			"byteOffset":7956,
			"byteLength":2100,
			"target":34962
		},
		{
			"buffer":0,
			"byteOffset":10056,
			"byteLength":2800,
			"target":34962
		},
		{
			"buffer":0,
			"byteOffset":12856,
			"byteLength":2100,
			"target":34962
		},
		{
			"buffer":0,
			"byteOffset":14956,
			"byteLength":1400,
			"target":34962
		},
		{
			"buffer":0,
			"byteOffset":16356,
			"byteLength":2100,
			"target":34962
		},
		{
			"buffer":0,
			"byteOffset":18456,
			"byteLength":700,
			"target":34962
		}
	],
	"nodes":[
		{
			"name":"pictogram",
			"mesh":0
		}
	],
	"meshes":[
		{
			"primitives":[
				{
					"attributes":{
						"POSITION":1,
						"COLOR_0":8,
						"TANGENT":5,
						"_fbx_translation":2,
						"_fbx_scale":3,
						"TEXCOORD_0":7,
						"NORMAL":6,
						"_fbx_rotation":4,
						"_Alpha":9
					},
					"indices":0
				}
			],
			"name":"pictogram"
		}
	],
	"scenes":[
		{
			"nodes":[0
			]
		}
	],
	"scene":0
}
